<?xml version="1.0" encoding="UTF-8" standalone="no"?>
<svg
   data-name="Layer 1"
   viewBox="0 0 36 36"
   x="0px"
   y="0px"
   version="1.1"
   id="svg11"
   sodipodi:docname="noun-random-4480482.svg"
   width="36"
   height="36"
   inkscape:version="1.4.2 (f4327f4, 2025-05-13)"
   xmlns:inkscape="http://www.inkscape.org/namespaces/inkscape"
   xmlns:sodipodi="http://sodipodi.sourceforge.net/DTD/sodipodi-0.dtd"
   xmlns="http://www.w3.org/2000/svg"
   xmlns:svg="http://www.w3.org/2000/svg">
  <defs
     id="defs11" />
  <sodipodi:namedview
     id="namedview11"
     pagecolor="#ffffff"
     bordercolor="#000000"
     borderopacity="0.25"
     inkscape:showpageshadow="2"
     inkscape:pageopacity="0.0"
     inkscape:pagecheckerboard="0"
     inkscape:deskcolor="#d1d1d1"
     inkscape:zoom="14.5875"
     inkscape:cx="31.979434"
     inkscape:cy="18.06341"
     inkscape:window-width="2560"
     inkscape:window-height="1369"
     inkscape:window-x="-8"
     inkscape:window-y="-8"
     inkscape:window-maximized="1"
     inkscape:current-layer="svg11" />
  <path
     d="m 18.752905,4.8544212 a 2.1764009,2.1764009 0 0 0 -2.139266,2.122745 l 0.855875,0.03806 a 1.2857044,1.2857044 0 1 1 2.568458,0.06672 1.3314313,1.3314313 0 0 1 -1.285067,1.370608 0.42824401,0.42824401 0 0 0 -0.428355,0.428356 v 2.3988328 h 0.856711 V 9.2645062 a 2.2114618,2.2114618 0 0 0 1.713421,-2.18256 2.1885019,2.1885019 0 0 0 -2.141777,-2.227534 z"
     id="path1"
     style="stroke-width:0.428355" />
  <rect
     x="18.324551"
     y="11.708108"
     width="0.85671079"
     height="0.85671079"
     rx="0.42819688"
     id="rect1"
     style="stroke-width:0.428355" />
  <path
     d="m 23.055701,2.8065572 0.818227,0.253501 a 0.85682642,0.85682642 0 1 1 0.564727,1.072156 0.42740872,0.42740872 0 0 0 -0.535873,0.282363 l -0.380246,1.227341 0.818223,0.253501 0.269397,-0.869891 a 1.7135715,1.7135715 0 1 0 -1.554464,-2.218954 z"
     id="path2"
     style="stroke-width:0.428355" />
  <path
     d="m 23.551484,6.9962242 a 0.42821403,0.42821403 0 0 0 0.535757,-0.282312 l 5.5e-5,-1.8e-4 a 0.42818832,0.42818832 0 0 0 -0.282311,-0.535736 l -1.59e-4,-5.1e-5 a 0.42820546,0.42820546 0 0 0 -0.535757,0.282286 l -5.1e-5,1.84e-4 a 0.42820546,0.42820546 0 0 0 0.282312,0.535757 z"
     id="path3"
     style="stroke-width:0.428355" />
  <path
     d="m 14.361427,1.2575212 a 1.7134644,1.7134644 0 0 0 -3.210973,1.197253 l 0.803166,-0.299095 a 0.85688211,0.85688211 0 1 1 1.101846,0.503232 0.42843677,0.42843677 0 0 0 -0.25141,0.550921 l 0.448436,1.204107 0.803167,-0.299095 -0.318367,-0.85316 a 1.7138499,1.7138499 0 0 0 0.624114,-2.00415 z"
     id="path4"
     style="stroke-width:0.428355" />
  <path
     d="m 13.803734,4.6657862 a 0.42821403,0.42821403 0 0 0 -0.251444,0.550844 l 1.58e-4,3.68e-4 a 0.42820974,0.42820974 0 1 0 0.802383,-0.299386 l -1.59e-4,-3.64e-4 a 0.42820117,0.42820117 0 0 0 -0.550938,-0.251462 z"
     id="path5"
     style="stroke-width:0.428355" />
  <path
     d="m 26.377546,24.152585 v -5.228009 l 1.472891,-0.361532 a 0.42799128,0.42799128 0 0 0 0.197866,-0.721594 l -2.158911,-2.119606 a 0.42272679,0.42272679 0 0 0 -0.213917,-0.111167 l 5.57e-4,-0.0028 -4.317886,-0.89247 -0.173184,0.839149 2.287953,0.472904 -4.72001,0.975575 -4.720048,-0.975579 2.287954,-0.472905 -0.173184,-0.839148 -4.317848,0.892479 5.99e-4,0.0029 a 0.42349355,0.42349355 0 0 0 -0.213942,0.111115 l -2.1589113,2.119605 a 0.42799128,0.42799128 0 0 0 0.197866,0.721595 l 1.4728913,0.361532 v 5.228004 a 0.42850102,0.42850102 0 0 0 0.307461,0.410995 l 7.196285,2.119605 a 0.40504,0.40504 0 0 0 0.241164,-0.002 l 6e-4,0.002 7.196276,-2.119605 a 0.42850102,0.42850102 0 0 0 0.307473,-0.410995 z m -15.771759,-6.238345 1.44779,-1.421018 5.962279,1.232357 -1.239472,1.703176 z m 7.718763,7.785278 -6.339574,-1.867364 V 19.13486 l 4.866683,1.194525 a 0.42835538,0.42835538 0 0 0 0.448436,-0.163979 l 1.024455,-1.408051 z m 7.127684,-9.206296 1.447789,1.421018 -6.170574,1.514515 -1.239472,-1.703176 z m 0.0686,7.338932 -6.339574,1.867257 v -6.942056 l 1.024455,1.408051 a 0.42835538,0.42835538 0 0 0 0.448436,0.163979 l 4.866683,-1.194525 z"
     id="path6"
     style="stroke-width:0.428355" />
  <path
     d="m 29.436273,8.9361382 a 0.42829541,0.42829541 0 0 0 -0.157703,-0.410793 2.227448,2.227448 0 0 1 -0.903145,-1.284016 0.42821831,0.42821831 0 0 0 -0.743766,-0.129475 2.2270196,2.2270196 0 0 1 -1.283811,0.902935 0.42835538,0.42835538 0 0 0 -0.129681,0.743766 2.2272467,2.2272467 0 0 1 0.903145,1.2842088 0.42859526,0.42859526 0 0 0 0.332982,0.287384 0.44089334,0.44089334 0 0 0 0.07362,0.0063 0.42830398,0.42830398 0 0 0 0.337163,-0.164188 2.2254818,2.2254818 0 0 1 1.283811,-0.9031448 0.42859526,0.42859526 0 0 0 0.287384,-0.332952 z m -1.770731,0.182175 a 2.6129678,2.6129678 0 0 0 -0.393231,-0.559286 2.6091426,2.6091426 0 0 0 0.558884,-0.393419 2.5999415,2.5999415 0 0 0 0.393633,0.559287 2.6014365,2.6014365 0 0 0 -0.559286,0.393418 z"
     id="path7"
     style="stroke-width:0.428355" />
  <path
     d="m 8.1159847,11.74178 a 0.42901505,0.42901505 0 0 0 0.297839,0.323987 0.43493492,0.43493492 0 0 0 0.12173,0.01756 0.42894651,0.42894651 0 0 0 0.304535,-0.12696 2.225379,2.225379 0 0 1 1.3791723,-0.748581 0.42829541,0.42829541 0 0 0 0.214606,-0.724105 2.2270625,2.2270625 0 0 1 -0.7483883,-1.3793808 0.42829541,0.42829541 0 0 0 -0.724105,-0.214606 2.22639,2.22639 0 0 1 -1.379604,0.748765 0.42817976,0.42817976 0 0 0 -0.214178,0.7238948 2.2265142,2.2265142 0 0 1 0.748393,1.379424 z m 0.921953,-1.7822188 a 2.6135461,2.6135461 0 0 0 0.326274,0.6008958 2.6019977,2.6019977 0 0 0 -0.6007,0.325868 2.6078276,2.6078276 0 0 0 -0.326261,-0.6007 2.6027516,2.6027516 0 0 0 0.600687,-0.3260638 z"
     id="path8"
     style="stroke-width:0.428355" />
  <path
     d="m 19.232295,14.932278 0.754642,0.405344 a 11.518857,11.518857 0 0 1 3.715898,-4.130031 11.15108,11.15108 0 0 1 2.474754,-1.2373768 l -0.285284,-0.807767 a 12.016148,12.016148 0 0 0 -2.665506,1.3327548 12.380075,12.380075 0 0 0 -3.994504,4.437076 z"
     id="path9"
     style="stroke-width:0.428355" />
  <path
     d="m 10.681503,9.9894552 a 4.9049947,4.9049947 0 0 1 1.575796,-6.42e-4 c 3.33063,0.5551058 4.947003,4.5075618 5.236893,5.2944118 l 0.804023,-0.296584 C 17.979039,14.121997 16.195757,9.7765332 12.397868,9.1438312 a 5.7366895,5.7366895 0 0 0 -1.851048,-6.43e-4 z"
     id="path10"
     style="stroke-width:0.428355" />
  <text
     x="5.0455337"
     y="33.55423"
     fill="#000000"
     font-size="2.14178px"
     font-weight="bold"
     font-family="'Helvetica Neue', Helvetica, Arial-Unicode, Arial, Sans-serif"
     id="text10"
     style="stroke-width:0.428355">Created by Nithinan Tatah</text>
  <text
     x="5.0455337"
     y="35.696007"
     fill="#000000"
     font-size="2.14178px"
     font-weight="bold"
     font-family="'Helvetica Neue', Helvetica, Arial-Unicode, Arial, Sans-serif"
     id="text11"
     style="stroke-width:0.428355">from the Noun Project</text>
</svg>
